<svg width="125" height="45" viewBox="0 0 125 45" fill="none" xmlns="http://www.w3.org/2000/svg">
<g filter="url(#filter0_d)">
<g clip-path="url(#clip0)">
<path d="M4.05724 28.5269C4.63476 33.3485 10.4455 36.9842 17.5736 36.9842C23.982 36.9842 29.4258 34.0267 30.8137 29.7919L30.8149 29.7898C31.0321 29.136 31.1442 28.4525 31.1472 27.7638C31.1439 27.5562 31.1294 27.3492 31.1038 27.1435L31.0966 27.0778V27.0775C30.8441 25.2525 29.9401 23.5808 28.5506 22.3706C30.1326 23.0668 31.8371 23.4407 33.5651 23.4711C34.9997 23.4979 36.4157 23.1424 37.6674 22.4414L37.668 22.4405C38.1485 22.1676 38.5914 21.8332 38.9851 21.4454C39.2813 21.1439 39.5458 20.8131 39.7753 20.4582L39.7759 20.4573C42.3782 16.5415 40.7131 9.96077 35.9023 5.15023C31.4476 0.695492 25.3229 -1.11659 21.3379 0.842206C20.6971 1.1522 20.1117 1.56553 19.6053 2.06563C19.4206 2.25482 19.2483 2.45546 19.0889 2.66664L19.0886 2.66694C16.1242 6.48422 17.7062 13.3786 22.6902 18.3626C23.1828 18.8537 23.7009 19.3185 24.242 19.7554C22.1127 18.9453 19.852 18.5343 17.5736 18.5434C11.2095 18.5434 5.62892 21.6003 4.30427 25.8119C4.10424 26.443 4.00151 27.1013 4 27.7638C4.00362 28.0189 4.02259 28.2735 4.05694 28.5266L4.05724 28.5269ZM17.5736 35.7502C11.5719 35.7502 6.44895 32.9006 5.42918 29.1357C5.45358 29.1381 5.47859 29.1408 5.50239 29.1432C5.72291 29.1683 5.93289 29.1957 6.12901 29.227C6.15763 29.2315 6.18414 29.2366 6.21246 29.2415C6.39563 29.2719 6.57036 29.3047 6.73876 29.3397C6.76678 29.3454 6.796 29.3508 6.82402 29.3568C7.00417 29.3954 7.178 29.4358 7.34881 29.4776C7.38587 29.4867 7.42262 29.496 7.45908 29.5051C7.62356 29.5463 7.78625 29.5879 7.95043 29.6307C9.54109 30.082 11.1896 30.2962 12.8426 30.266C14.4938 30.2965 16.1405 30.0817 17.7288 29.6292C19.2152 29.2023 20.7573 29.0011 22.3034 29.0321C23.8501 29.0011 25.3928 29.2023 26.8799 29.6289C27.0344 29.6689 27.1911 29.7093 27.3501 29.7494C27.3869 29.7587 27.4236 29.7678 27.4607 29.7771C27.6294 29.819 27.8026 29.8599 27.9828 29.8994C28.0048 29.9042 28.0283 29.9088 28.0506 29.9136C28.2171 29.9491 28.391 29.9832 28.5723 30.0154C28.6046 30.0211 28.6353 30.0271 28.6678 30.0326C28.8646 30.0663 29.0724 30.0967 29.292 30.1245C29.3116 30.1272 29.3279 30.1305 29.3478 30.1329C27.7532 33.4287 22.974 35.7502 17.5736 35.7502V35.7502ZM35.0299 6.02299C39.0719 10.0653 40.7641 15.5962 39.1463 19.0634C39.1297 19.0441 39.1128 19.0248 39.0969 19.0055C38.9333 18.813 38.7818 18.6271 38.6468 18.4506C38.6347 18.4349 38.6245 18.4202 38.6128 18.4048C38.4841 18.2349 38.3666 18.071 38.2567 17.9113C38.2389 17.8854 38.2202 17.8589 38.2027 17.8333C38.0907 17.6679 37.9858 17.5061 37.8849 17.3459C37.8656 17.3151 37.8466 17.2847 37.8274 17.254C37.7301 17.0979 37.6349 16.9425 37.5394 16.7855C36.713 15.3545 35.6794 14.054 34.4725 12.9258C33.3091 11.7548 31.9778 10.763 30.523 9.98336C29.1595 9.25522 27.9132 8.32703 26.8253 7.22924C25.6947 6.17543 24.7282 4.95803 23.9582 3.61802C23.8799 3.48878 23.8001 3.35803 23.7187 3.22638L23.6564 3.12606C23.569 2.98568 23.4789 2.84348 23.3825 2.69737C23.372 2.6811 23.3602 2.66423 23.3494 2.64796C23.2623 2.51661 23.1695 2.38195 23.071 2.24367C23.0481 2.21174 23.0261 2.1801 23.0026 2.14757C22.8927 1.99573 22.7752 1.83938 22.6474 1.6773C22.639 1.66615 22.6321 1.65621 22.6233 1.64537C26.149 0.459303 31.2135 2.20631 35.0299 6.02299V6.02299ZM20.4778 2.93808C20.7742 2.64435 21.1059 2.38828 21.465 2.17619C21.4755 2.18854 21.4843 2.20029 21.4945 2.21264C21.6307 2.37833 21.7545 2.5368 21.8699 2.69044C21.8886 2.71545 21.9087 2.74135 21.9271 2.76606C22.0425 2.92271 22.1486 3.07425 22.2489 3.22247C22.2688 3.25199 22.2886 3.28121 22.3079 3.31044C22.4058 3.45745 22.4995 3.60236 22.589 3.74576C22.6053 3.77167 22.6212 3.79757 22.6372 3.82348C22.727 3.96839 22.8149 4.11239 22.9035 4.2585C23.7284 5.68799 24.7605 6.98762 25.9661 8.11494C27.1296 9.28564 28.4609 10.2774 29.9157 11.0574C31.2792 11.7852 32.5255 12.7134 33.6133 13.8115C34.7455 14.8665 35.7134 16.0851 36.4852 17.4266C36.5488 17.5308 36.6127 17.6357 36.6775 17.7414C36.6994 17.777 36.7223 17.8134 36.7446 17.8493C36.7901 17.9225 36.8356 17.9957 36.8826 18.0698C36.9103 18.1135 36.9396 18.1578 36.9679 18.2018C37.0122 18.2707 37.057 18.3397 37.104 18.4102C37.1354 18.4572 37.1682 18.5054 37.201 18.5533C37.2477 18.622 37.2959 18.6916 37.3457 18.7621C37.3818 18.813 37.4192 18.8648 37.4568 18.9169C37.508 18.9871 37.5608 19.0585 37.6156 19.1308C37.6569 19.1854 37.699 19.2408 37.7424 19.2965C37.7993 19.3697 37.8596 19.4448 37.9208 19.5204C37.9675 19.5782 38.0141 19.6361 38.0639 19.6954C38.1283 19.7731 38.1976 19.8533 38.2672 19.9337C38.3208 19.9955 38.3729 20.0566 38.4293 20.1199C38.4431 20.1355 38.4549 20.15 38.4691 20.1657C38.3588 20.3085 38.2398 20.4446 38.1127 20.573C37.9132 20.7706 37.6963 20.9502 37.4646 21.1095L37.4433 21.086C37.4038 21.0411 37.3685 20.9987 37.3309 20.955C37.2595 20.8721 37.1884 20.7899 37.1227 20.7104C37.082 20.6609 37.0441 20.6133 37.0052 20.5651C36.9483 20.4941 36.892 20.4236 36.8389 20.3549C36.801 20.3058 36.7648 20.2579 36.7287 20.2097C36.6796 20.1443 36.6317 20.0795 36.5856 20.0156C36.5515 19.969 36.5184 19.9226 36.4862 19.8765C36.441 19.8123 36.397 19.7487 36.3545 19.6858C36.3253 19.6427 36.2958 19.5996 36.2674 19.5568C36.2244 19.4915 36.1822 19.4267 36.1406 19.3622C36.1153 19.323 36.0897 19.2836 36.065 19.2444C36.0204 19.1742 35.977 19.1043 35.9339 19.0347C35.9135 19.0019 35.8927 18.9688 35.8725 18.9356C35.8113 18.8362 35.7505 18.7368 35.6899 18.6371C34.8627 17.2061 33.8287 15.9052 32.6216 14.7767C31.4581 13.6057 30.1268 12.614 28.6721 11.8343C27.3085 11.1065 26.0622 10.178 24.9744 9.08018C23.8428 8.02547 22.8755 6.80747 22.1043 5.46686C22.0091 5.31051 21.9118 5.15204 21.8123 4.99177C21.7913 4.95803 21.7705 4.92429 21.7491 4.89025C21.6476 4.72877 21.5397 4.56368 21.4255 4.39437C21.4017 4.35882 21.3773 4.32327 21.3526 4.28742C21.2336 4.1142 21.1056 3.93585 20.9652 3.74997C20.9417 3.71925 20.9164 3.68731 20.8926 3.65628C20.7405 3.45835 20.5775 3.2547 20.3925 3.0384L20.3877 3.03237C20.4175 2.99984 20.4473 2.9685 20.4778 2.93808V2.93808ZM23.5627 17.4902C19.2866 13.2138 17.6712 7.50248 19.6378 4.06057C19.6526 4.07865 19.6683 4.09703 19.6827 4.1148C19.8153 4.27809 19.9391 4.43595 20.0521 4.58808C20.0735 4.6167 20.0927 4.64442 20.1135 4.67274C20.2154 4.81222 20.3112 4.94839 20.4009 5.08125C20.4169 5.10535 20.4341 5.12945 20.4497 5.15325C20.5489 5.30177 20.6422 5.44758 20.7329 5.59249C20.7528 5.62412 20.7721 5.65545 20.7917 5.68678C20.8784 5.82687 20.964 5.96665 21.0499 6.10794C21.8759 7.53773 22.9089 8.83797 24.1152 9.96589C25.2787 11.1366 26.6099 12.1283 28.0647 12.908C29.4282 13.6361 30.6745 14.5643 31.7624 15.6621C32.8948 16.7177 33.8634 17.9366 34.6358 19.2782C34.7307 19.4342 34.8277 19.5918 34.9268 19.7514C34.95 19.7888 34.9729 19.8259 34.9967 19.8632C35.1001 20.0271 35.2088 20.1946 35.3254 20.3666C35.3489 20.4013 35.3739 20.4368 35.398 20.4721C35.5188 20.6471 35.6468 20.8266 35.7899 21.0149L35.8083 21.0402C35.9535 21.2303 36.118 21.4316 36.2933 21.6391C36.3159 21.6657 36.3325 21.6892 36.3557 21.7163C32.8536 23.1656 27.5218 21.4484 23.5627 17.4902V17.4902ZM17.5736 19.7774C23.6286 19.7774 28.7618 22.658 29.7343 26.462C29.7102 26.4593 29.6855 26.4569 29.662 26.4545C29.4379 26.4295 29.2246 26.4018 29.0257 26.3701C28.9992 26.3659 28.9745 26.3611 28.9483 26.3569C28.7654 26.3268 28.591 26.2939 28.4232 26.2593C28.3898 26.2523 28.3551 26.246 28.3223 26.2388C28.1454 26.2011 27.9746 26.1614 27.8068 26.1204C27.7628 26.1096 27.7186 26.0987 27.6749 26.0876C27.5149 26.0475 27.3561 26.0071 27.1962 25.9655C25.6055 25.5143 23.9567 25.3001 22.3034 25.3302C20.6522 25.2998 19.0055 25.5143 17.4173 25.9671C15.9308 26.3936 14.3887 26.5949 12.8426 26.5642C11.2956 26.5949 9.75288 26.3936 8.26555 25.9674C8.11281 25.9276 7.95827 25.8878 7.80161 25.8484C7.75883 25.8375 7.71605 25.827 7.67267 25.8161C7.50577 25.7749 7.33466 25.7345 7.15631 25.6956C7.12829 25.6893 7.09877 25.6836 7.07015 25.6775C6.90536 25.6426 6.73334 25.6092 6.55409 25.5775C6.52095 25.5718 6.48932 25.5655 6.45558 25.5598C6.25765 25.5263 6.04767 25.4962 5.82715 25.4685C5.80485 25.4658 5.78618 25.4621 5.76358 25.4594C7.32471 22.1263 12.1205 19.7774 17.5736 19.7774V19.7774ZM5.35537 26.6557L5.37857 26.6584C5.61717 26.6829 5.83739 26.7124 6.04737 26.7443C6.07719 26.7491 6.10883 26.753 6.13835 26.7579C6.3408 26.7904 6.53119 26.8259 6.71526 26.8639C6.75232 26.8714 6.78967 26.879 6.82613 26.8871C7.00387 26.9251 7.17589 26.9645 7.3443 27.0058C7.38316 27.0154 7.42142 27.0251 7.45998 27.0347C7.62537 27.0763 7.78956 27.1185 7.95465 27.1616C9.5435 27.6137 11.1908 27.8282 12.8426 27.7981C14.4938 27.8285 16.1405 27.6137 17.7288 27.1613C19.2152 26.7344 20.7573 26.5331 22.3034 26.5642C23.8522 26.5334 25.3967 26.7344 26.8862 27.16C26.9955 27.1884 27.1055 27.2167 27.2164 27.245C27.2585 27.2558 27.3016 27.2664 27.3441 27.2769C27.42 27.2962 27.4962 27.3152 27.574 27.3339C27.6191 27.3447 27.6658 27.3556 27.7119 27.3664C27.7888 27.3845 27.8665 27.4023 27.9457 27.4197C27.9948 27.4306 28.0448 27.4411 28.0951 27.4517C28.1741 27.4685 28.2548 27.4848 28.337 27.5008C28.3901 27.511 28.4437 27.5213 28.4979 27.5312C28.5829 27.5466 28.6705 27.5616 28.7591 27.5761C28.8145 27.5851 28.8697 27.5942 28.9266 27.6029C29.0224 27.6177 29.1224 27.6309 29.2237 27.6445C29.2782 27.6517 29.3315 27.6592 29.3881 27.6659C29.5062 27.68 29.6301 27.6927 29.756 27.705C29.8015 27.7092 29.844 27.7144 29.8907 27.7186L29.9129 27.721C29.9132 27.7352 29.9132 27.7496 29.9132 27.7638C29.912 28.1596 29.865 28.554 29.7732 28.939L29.7482 28.936C29.5138 28.9116 29.2975 28.8824 29.0908 28.8507C29.0589 28.8456 29.0254 28.8414 28.9941 28.8363C28.795 28.804 28.6073 28.7688 28.4262 28.7314C28.3871 28.7236 28.3482 28.7155 28.3096 28.7073C28.1349 28.6697 27.965 28.6305 27.799 28.5898C27.7589 28.5799 27.7192 28.5696 27.6794 28.5597C27.5161 28.5187 27.3543 28.4772 27.1911 28.4347C25.6022 27.9822 23.9552 27.7677 22.3034 27.7981C20.6522 27.7677 19.0055 27.9822 17.4173 28.435C15.9308 28.8616 14.3887 29.0628 12.8426 29.0321C11.2941 29.0625 9.74956 28.8616 8.26043 28.4362C8.14866 28.4073 8.03629 28.378 7.92302 28.3491C7.88958 28.3407 7.85493 28.3323 7.82089 28.3235C7.73925 28.303 7.657 28.2825 7.57295 28.2621C7.52656 28.2509 7.47866 28.2401 7.43136 28.2289C7.35725 28.2114 7.28254 28.1943 7.20632 28.1774C7.1539 28.1657 7.09997 28.1545 7.04605 28.1431C6.97164 28.1274 6.89572 28.112 6.8186 28.097C6.76075 28.0855 6.70231 28.0747 6.64266 28.0638C6.56493 28.0497 6.4848 28.0361 6.40376 28.0226C6.3411 28.0123 6.27844 28.0018 6.21336 27.9921C6.12991 27.9792 6.04255 27.9674 5.95488 27.956C5.8874 27.9469 5.82082 27.9376 5.75093 27.9292C5.65422 27.9177 5.5524 27.9075 5.45057 27.8972C5.38429 27.8906 5.32073 27.8831 5.25174 27.877L5.23607 27.8755C5.23487 27.8382 5.23396 27.8008 5.23396 27.7638C5.23457 27.3911 5.27524 27.0197 5.35537 26.6557V26.6557Z" fill="white"/>
<path d="M11.0706 31.8389C10.8169 31.7079 10.5759 31.5702 10.3475 31.4259C10.0592 31.2454 9.67935 31.3325 9.49829 31.6202C9.31723 31.9079 9.40309 32.2881 9.6902 32.4701C9.94687 32.6318 10.2177 32.7867 10.503 32.9349C10.8058 33.0916 11.1781 32.9732 11.3348 32.6707C11.4914 32.3679 11.3733 31.9956 11.0706 31.8389V31.8389Z" fill="white"/>
<path d="M25.6181 30.8345C23.6898 32.3902 20.7576 33.2823 17.5736 33.2823C15.9642 33.2952 14.363 33.0545 12.8287 32.5689C12.5052 32.464 12.1578 32.6412 12.0524 32.9647C11.9469 33.2883 12.1235 33.6359 12.4467 33.742C14.1043 34.268 15.8344 34.5292 17.5736 34.5162C21.0345 34.5162 24.2489 33.5245 26.393 31.7949C26.6581 31.5807 26.6997 31.1924 26.4858 30.9273C26.2719 30.6619 25.8833 30.6203 25.6181 30.8345V30.8345Z" fill="white"/>
<path d="M21.643 9.73934C21.5749 9.49622 21.5171 9.25611 21.4698 9.01932C21.4029 8.68522 21.0778 8.46862 20.7437 8.5355C20.4097 8.60238 20.193 8.92744 20.2599 9.26154C20.3132 9.52755 20.3783 9.79748 20.4548 10.0719C20.5467 10.4 20.8871 10.5913 21.2152 10.4997C21.5433 10.4078 21.7349 10.0674 21.643 9.73934Z" fill="white"/>
<path d="M33.7407 20.3943C33.7618 20.0542 33.5031 19.7614 33.1629 19.7406C30.6257 19.5842 27.6158 18.0532 25.3079 15.745C24.1459 14.5972 23.1788 13.2674 22.4453 11.8081C22.2934 11.5035 21.9241 11.3794 21.6192 11.5303C21.3143 11.6813 21.1893 12.0506 21.3397 12.3558C22.1329 13.9353 23.1785 15.3747 24.4354 16.6174C26.9853 19.1676 30.2196 20.7956 33.087 20.9721C33.1 20.9731 33.1129 20.9734 33.1256 20.9734C33.4512 20.9728 33.7206 20.7194 33.7407 20.3943Z" fill="white"/>
</g>
</g>
<path d="M39.522 37.21C38.486 37.21 37.6133 36.79 36.904 35.95C36.1947 35.11 35.84 33.8873 35.84 32.282C35.84 31.0967 36.0313 30.0187 36.414 29.048C36.7967 28.068 37.394 27.27 38.206 26.654C39.0273 26.0287 39.9513 25.716 40.978 25.716C42.0047 25.716 42.7513 25.968 43.218 26.472C43.6847 26.9667 43.918 27.536 43.918 28.18C43.918 28.824 43.7547 29.342 43.428 29.734C43.1013 30.1167 42.6767 30.308 42.154 30.308C41.986 30.308 41.7807 30.2707 41.538 30.196C41.7527 29.972 41.9393 29.6593 42.098 29.258C42.266 28.8473 42.35 28.4367 42.35 28.026C42.35 27.6153 42.238 27.2653 42.014 26.976C41.7993 26.6773 41.454 26.528 40.978 26.528C40.2593 26.528 39.6153 26.8267 39.046 27.424C38.486 28.012 38.0613 28.74 37.772 29.608C37.492 30.4667 37.352 31.3533 37.352 32.268C37.352 33.556 37.5993 34.522 38.094 35.166C38.5887 35.8007 39.228 36.118 40.012 36.118C40.5347 36.118 41.0713 35.9593 41.622 35.642C42.1727 35.3247 42.6253 34.8673 42.98 34.27C43.12 34.27 43.2507 34.312 43.372 34.396C43.4933 34.48 43.554 34.564 43.554 34.648C43.0313 35.6373 42.3733 36.3233 41.58 36.706C40.8893 37.042 40.2033 37.21 39.522 37.21ZM50.6939 32.408C50.6939 31.4933 50.5772 30.84 50.3439 30.448C50.1199 30.0467 49.7932 29.846 49.3639 29.846C48.9439 29.846 48.5192 30.056 48.0899 30.476C47.6606 30.8867 47.3199 31.4 47.0679 32.016C46.8252 32.6227 46.7039 33.2573 46.7039 33.92C46.7039 34.5733 46.8299 35.1427 47.0819 35.628C47.3339 36.104 47.7166 36.342 48.2299 36.342C48.9579 36.342 49.5506 35.9127 50.0079 35.054C50.4652 34.1953 50.6939 33.3133 50.6939 32.408ZM46.6339 31.862C46.9886 30.854 47.4646 30.1213 48.0619 29.664C48.6686 29.1973 49.2799 28.964 49.8959 28.964C50.5212 28.964 51.0392 29.2393 51.4499 29.79C51.8606 30.3313 52.0659 31.0687 52.0659 32.002C52.0659 33.0287 51.8699 33.9807 51.4779 34.858C51.0392 35.8287 50.4046 36.5053 49.5739 36.888C49.1259 37.1027 48.6312 37.21 48.0899 37.21C47.3339 37.21 46.6712 36.8973 46.1019 36.272C45.5326 35.6373 45.2479 34.7367 45.2479 33.57C45.2479 32.394 45.4999 31.3767 46.0039 30.518C46.5079 29.6593 47.1939 29.062 48.0619 28.726C48.2486 28.726 48.3419 28.8193 48.3419 29.006C47.4179 29.6127 46.8486 30.5647 46.6339 31.862ZM58.5225 29.328C58.5225 29.72 58.4478 29.9907 58.2985 30.14C58.1492 30.2893 57.9298 30.364 57.6405 30.364H56.4645C56.1472 32.38 55.9885 34.298 55.9885 36.118C55.9885 36.6687 55.9978 37.0653 56.0165 37.308C56.0445 37.56 56.1098 37.9847 56.2125 38.582C55.1578 38.162 54.6305 37.2007 54.6305 35.698C54.6305 34.0087 54.8032 32.2587 55.1485 30.448C54.6818 30.5227 54.2012 30.6627 53.7065 30.868C53.6878 30.7187 53.6785 30.5833 53.6785 30.462C53.6785 30.014 53.8232 29.7153 54.1125 29.566C54.4112 29.4073 54.8358 29.328 55.3865 29.328C56.1892 26.0427 57.4258 24.4 59.0965 24.4C59.6472 24.4 60.0998 24.554 60.4545 24.862C60.8092 25.17 60.9865 25.5387 60.9865 25.968C60.9865 26.3973 60.8605 26.7613 60.6085 27.06C60.3565 27.3493 60.0252 27.494 59.6145 27.494C59.4465 27.494 59.2925 27.4613 59.1525 27.396C59.2645 27.2933 59.3765 27.1253 59.4885 26.892C59.6098 26.6493 59.6705 26.402 59.6705 26.15C59.6705 25.8887 59.6005 25.6693 59.4605 25.492C59.3298 25.3147 59.1572 25.226 58.9425 25.226C57.9532 25.226 57.1832 26.6073 56.6325 29.37C57.5378 29.37 58.1585 29.2347 58.4945 28.964C58.5132 29.0947 58.5225 29.216 58.5225 29.328ZM64.2374 29.328C64.2374 29.72 64.1627 29.9907 64.0134 30.14C63.864 30.2893 63.6447 30.364 63.3554 30.364H62.1794C61.862 32.38 61.7034 34.298 61.7034 36.118C61.7034 36.6687 61.7127 37.0653 61.7314 37.308C61.7594 37.56 61.8247 37.9847 61.9274 38.582C60.8727 38.162 60.3454 37.2007 60.3454 35.698C60.3454 34.0087 60.518 32.2587 60.8634 30.448C60.3967 30.5227 59.916 30.6627 59.4214 30.868C59.4027 30.7187 59.3934 30.5833 59.3934 30.462C59.3934 30.014 59.538 29.7153 59.8274 29.566C60.126 29.4073 60.5507 29.328 61.1014 29.328C61.904 26.0427 63.1407 24.4 64.8114 24.4C65.362 24.4 65.8147 24.554 66.1694 24.862C66.524 25.17 66.7014 25.5387 66.7014 25.968C66.7014 26.3973 66.5754 26.7613 66.3234 27.06C66.0714 27.3493 65.74 27.494 65.3294 27.494C65.1614 27.494 65.0074 27.4613 64.8674 27.396C64.9794 27.2933 65.0914 27.1253 65.2034 26.892C65.3247 26.6493 65.3854 26.402 65.3854 26.15C65.3854 25.8887 65.3154 25.6693 65.1754 25.492C65.0447 25.3147 64.872 25.226 64.6574 25.226C63.668 25.226 62.898 26.6073 62.3474 29.37C63.2527 29.37 63.8734 29.2347 64.2094 28.964C64.228 29.0947 64.2374 29.216 64.2374 29.328ZM68.6464 29.65C68.0864 29.65 67.6104 29.972 67.2184 30.616C66.8357 31.26 66.579 32.016 66.4484 32.884H66.8404C67.335 32.884 67.7644 32.814 68.1284 32.674C68.4924 32.534 68.7724 32.352 68.9684 32.128C69.3417 31.6987 69.5284 31.2133 69.5284 30.672C69.5284 30.364 69.4537 30.1167 69.3044 29.93C69.1644 29.7433 68.945 29.65 68.6464 29.65ZM70.6204 35.32C70.191 36.02 69.7197 36.51 69.2064 36.79C68.693 37.07 68.0957 37.21 67.4144 37.21C66.7424 37.21 66.1544 36.9113 65.6504 36.314C65.1464 35.7167 64.8944 34.8767 64.8944 33.794C64.8944 32.562 65.2257 31.4607 65.8884 30.49C66.215 30.0233 66.6397 29.6453 67.1624 29.356C67.6944 29.0667 68.2777 28.922 68.9124 28.922C70.3124 28.922 71.0124 29.5987 71.0124 30.952C71.0124 31.764 70.695 32.4033 70.0604 32.87C69.435 33.3273 68.707 33.556 67.8764 33.556C67.3257 33.556 66.831 33.5047 66.3924 33.402C66.383 33.4953 66.3784 33.64 66.3784 33.836C66.3784 35.488 66.8684 36.314 67.8484 36.314C68.7724 36.314 69.5237 35.8567 70.1024 34.942C70.4477 34.9887 70.6204 35.1147 70.6204 35.32ZM76.2343 29.65C75.6743 29.65 75.1983 29.972 74.8063 30.616C74.4236 31.26 74.1669 32.016 74.0363 32.884H74.4283C74.9229 32.884 75.3523 32.814 75.7163 32.674C76.0803 32.534 76.3603 32.352 76.5563 32.128C76.9296 31.6987 77.1163 31.2133 77.1163 30.672C77.1163 30.364 77.0416 30.1167 76.8923 29.93C76.7523 29.7433 76.5329 29.65 76.2343 29.65ZM78.2083 35.32C77.7789 36.02 77.3076 36.51 76.7943 36.79C76.2809 37.07 75.6836 37.21 75.0023 37.21C74.3303 37.21 73.7423 36.9113 73.2383 36.314C72.7343 35.7167 72.4823 34.8767 72.4823 33.794C72.4823 32.562 72.8136 31.4607 73.4763 30.49C73.8029 30.0233 74.2276 29.6453 74.7503 29.356C75.2823 29.0667 75.8656 28.922 76.5003 28.922C77.9003 28.922 78.6003 29.5987 78.6003 30.952C78.6003 31.764 78.2829 32.4033 77.6483 32.87C77.0229 33.3273 76.2949 33.556 75.4643 33.556C74.9136 33.556 74.4189 33.5047 73.9803 33.402C73.9709 33.4953 73.9663 33.64 73.9663 33.836C73.9663 35.488 74.4563 36.314 75.4363 36.314C76.3603 36.314 77.1116 35.8567 77.6903 34.942C78.0356 34.9887 78.2083 35.1147 78.2083 35.32ZM86.5533 32.674C86.8613 31.6193 87.3326 30.7327 87.9673 30.014C88.6113 29.286 89.2133 28.922 89.7733 28.922C90.3333 28.922 90.7299 29.0947 90.9633 29.44C91.1966 29.776 91.3133 30.238 91.3133 30.826C91.3133 31.4047 91.2199 32.2213 91.0333 33.276C90.8559 34.3307 90.7673 35.1007 90.7673 35.586C90.7673 36.062 90.8279 36.412 90.9493 36.636C91.0706 36.8507 91.2759 37.0373 91.5653 37.196C91.4439 37.2053 91.2713 37.21 91.0473 37.21C90.4499 37.21 90.0066 37.0887 89.7173 36.846C89.4373 36.594 89.2973 36.1693 89.2973 35.572C89.2973 35.2267 89.3906 34.5313 89.5773 33.486C89.7639 32.4313 89.8573 31.6567 89.8573 31.162C89.8573 30.546 89.6426 30.238 89.2133 30.238C88.9613 30.238 88.6813 30.3733 88.3733 30.644C88.0653 30.9053 87.7666 31.2647 87.4772 31.722C87.1973 32.17 86.9593 32.744 86.7633 33.444C86.5766 34.1347 86.4833 34.8207 86.4833 35.502C86.4833 36.174 86.5113 36.6733 86.5673 37C86.3433 37.0187 86.2173 37.028 86.1893 37.028C85.7506 37.028 85.4239 36.9347 85.2093 36.748C85.0039 36.5613 84.9013 36.272 84.9013 35.88C84.9013 35.4787 84.9853 34.7133 85.1533 33.584C85.6479 30.112 85.8953 27.4753 85.8953 25.674C85.8953 24.862 85.8393 24.316 85.7273 24.036C86.2686 24.232 86.6466 24.5213 86.8613 24.904C87.0853 25.2867 87.1973 25.814 87.1973 26.486C87.1973 26.9527 87.1039 27.9327 86.9173 29.426C86.7399 30.9193 86.6186 32.002 86.5533 32.674ZM98.8326 32.408C98.8326 31.4933 98.7159 30.84 98.4826 30.448C98.2586 30.0467 97.9319 29.846 97.5026 29.846C97.0826 29.846 96.6579 30.056 96.2286 30.476C95.7992 30.8867 95.4586 31.4 95.2066 32.016C94.9639 32.6227 94.8426 33.2573 94.8426 33.92C94.8426 34.5733 94.9686 35.1427 95.2206 35.628C95.4726 36.104 95.8552 36.342 96.3686 36.342C97.0966 36.342 97.6892 35.9127 98.1466 35.054C98.6039 34.1953 98.8326 33.3133 98.8326 32.408ZM94.7726 31.862C95.1272 30.854 95.6032 30.1213 96.2006 29.664C96.8072 29.1973 97.4186 28.964 98.0346 28.964C98.6599 28.964 99.1779 29.2393 99.5886 29.79C99.9992 30.3313 100.205 31.0687 100.205 32.002C100.205 33.0287 100.009 33.9807 99.6166 34.858C99.1779 35.8287 98.5432 36.5053 97.7126 36.888C97.2646 37.1027 96.7699 37.21 96.2286 37.21C95.4726 37.21 94.8099 36.8973 94.2406 36.272C93.6712 35.6373 93.3866 34.7367 93.3866 33.57C93.3866 32.394 93.6386 31.3767 94.1426 30.518C94.6466 29.6593 95.3326 29.062 96.2006 28.726C96.3872 28.726 96.4806 28.8193 96.4806 29.006C95.5566 29.6127 94.9872 30.5647 94.7726 31.862ZM107.277 28.894C108.08 28.894 108.481 29.3093 108.481 30.14C108.481 30.2893 108.393 30.9473 108.215 32.114C108.038 33.2713 107.949 34.2653 107.949 35.096C107.949 35.9267 108.038 36.6593 108.215 37.294C107.646 37.07 107.249 36.7527 107.025 36.342C106.811 35.9313 106.703 35.4227 106.703 34.816C106.703 34.5827 106.755 34.0553 106.857 33.234C106.577 34.298 106.143 35.194 105.555 35.922C104.967 36.6407 104.421 37 103.917 37C102.853 37 102.321 36.2253 102.321 34.676C102.321 34.1627 102.396 33.4487 102.545 32.534C102.704 31.61 102.783 30.91 102.783 30.434C102.783 29.958 102.718 29.4773 102.587 28.992C103.185 28.992 103.633 29.0947 103.931 29.3C104.23 29.5053 104.379 29.902 104.379 30.49C104.379 30.8073 104.281 31.4607 104.085 32.45C103.889 33.4393 103.791 34.172 103.791 34.648C103.791 35.3387 104.006 35.684 104.435 35.684C104.79 35.684 105.159 35.4087 105.541 34.858C105.933 34.298 106.26 33.5747 106.521 32.688C106.783 31.8013 106.913 30.924 106.913 30.056C106.913 29.664 106.885 29.286 106.829 28.922C107.035 28.9033 107.184 28.894 107.277 28.894ZM113.569 29.608C113.261 29.608 112.981 29.706 112.729 29.902C112.487 30.098 112.365 30.3687 112.365 30.714C112.365 31.05 112.477 31.3673 112.701 31.666C112.935 31.9647 113.215 32.2307 113.541 32.464C113.868 32.6973 114.199 32.9353 114.535 33.178C115.319 33.7567 115.711 34.3773 115.711 35.04C115.711 35.7027 115.445 36.244 114.913 36.664C114.381 37.0747 113.7 37.28 112.869 37.28C112.048 37.28 111.409 37.1167 110.951 36.79C110.503 36.4633 110.279 36.0807 110.279 35.642C110.279 35.194 110.391 34.844 110.615 34.592C110.839 34.34 111.11 34.214 111.427 34.214C111.595 34.214 111.754 34.2513 111.903 34.326C111.698 34.5873 111.595 34.8953 111.595 35.25C111.595 35.6047 111.703 35.9033 111.917 36.146C112.141 36.3887 112.445 36.51 112.827 36.51C113.219 36.51 113.551 36.412 113.821 36.216C114.092 36.0107 114.227 35.754 114.227 35.446C114.227 35.138 114.148 34.8673 113.989 34.634C113.831 34.4007 113.63 34.2 113.387 34.032C113.154 33.864 112.897 33.6773 112.617 33.472C112.337 33.2667 112.076 33.066 111.833 32.87C111.6 32.6647 111.404 32.4127 111.245 32.114C111.087 31.806 111.007 31.47 111.007 31.106C111.007 30.4433 111.259 29.902 111.763 29.482C112.267 29.0527 112.902 28.838 113.667 28.838C114.433 28.838 114.993 28.9967 115.347 29.314C115.702 29.6313 115.879 29.9907 115.879 30.392C115.879 30.784 115.781 31.1107 115.585 31.372C115.389 31.624 115.137 31.75 114.829 31.75C114.68 31.75 114.507 31.708 114.311 31.624C114.554 31.3253 114.675 31.0033 114.675 30.658C114.675 30.3127 114.568 30.0513 114.353 29.874C114.148 29.6967 113.887 29.608 113.569 29.608ZM121.297 29.65C120.737 29.65 120.261 29.972 119.869 30.616C119.486 31.26 119.229 32.016 119.099 32.884H119.491C119.985 32.884 120.415 32.814 120.779 32.674C121.143 32.534 121.423 32.352 121.619 32.128C121.992 31.6987 122.179 31.2133 122.179 30.672C122.179 30.364 122.104 30.1167 121.955 29.93C121.815 29.7433 121.595 29.65 121.297 29.65ZM123.271 35.32C122.841 36.02 122.37 36.51 121.857 36.79C121.343 37.07 120.746 37.21 120.065 37.21C119.393 37.21 118.805 36.9113 118.301 36.314C117.797 35.7167 117.545 34.8767 117.545 33.794C117.545 32.562 117.876 31.4607 118.539 30.49C118.865 30.0233 119.29 29.6453 119.813 29.356C120.345 29.0667 120.928 28.922 121.563 28.922C122.963 28.922 123.663 29.5987 123.663 30.952C123.663 31.764 123.345 32.4033 122.711 32.87C122.085 33.3273 121.357 33.556 120.527 33.556C119.976 33.556 119.481 33.5047 119.043 33.402C119.033 33.4953 119.029 33.64 119.029 33.836C119.029 35.488 119.519 36.314 120.499 36.314C121.423 36.314 122.174 35.8567 122.753 34.942C123.098 34.9887 123.271 35.1147 123.271 35.32Z" fill="white"/>
<defs>
<filter id="filter0_d" x="0" y="0" width="45" height="45" filterUnits="userSpaceOnUse" color-interpolation-filters="sRGB">
<feFlood flood-opacity="0" result="BackgroundImageFix"/>
<feColorMatrix in="SourceAlpha" type="matrix" values="0 0 0 0 0 0 0 0 0 0 0 0 0 0 0 0 0 0 127 0"/>
<feOffset dy="4"/>
<feGaussianBlur stdDeviation="2"/>
<feColorMatrix type="matrix" values="0 0 0 0 0 0 0 0 0 0 0 0 0 0 0 0 0 0 0.25 0"/>
<feBlend mode="normal" in2="BackgroundImageFix" result="effect1_dropShadow"/>
<feBlend mode="normal" in="SourceGraphic" in2="effect1_dropShadow" result="shape"/>
</filter>
<clipPath id="clip0">
<rect width="37" height="37" fill="white" transform="translate(4)"/>
</clipPath>
</defs>
</svg>
